# xmcd
#
# Track frame offsets:
#	150
#	17479
#	31590
#	44899
#	62236
#	78773
#	94066
#	113593
#	133950
#	150200
#	164396
#	182653
#	200692
#	215886
#	236076
#
# Disc length: 3332 seconds
#
# Revision: 0
# Processed by: cddbd v1.5.2PL0 Copyright (c) Steve Scherf et al.
# Submitted via: audiograbber 1.83.01
#
DISCID=c80d020f
DTITLE=Various Artist - CDX Volume 494 - 3/1/2010
DYEAR=2010
DGENRE=Country
TTITLE0=Kenny Chesney - Ain't Back Yet
TTITLE1=Jason Aldean - Crazy Town
TTITLE2=Little Big Town - Little White Church
TTITLE3=Miranda Lambert - The House That Built Me
TTITLE4=Mindy McCready - I Want A Man
TTITLE5=Jeff Cook and The AGB - Kissing A Fool
TTITLE6=Johnny Rivers - The American Dream
TTITLE7=MJ2 and Celebrity Friends - You Can't Say Love Enough
TTITLE8=Guy Penrod - Are You The One
TTITLE9=Levi Riggs - F-150
TTITLE10=Susan Hickman - Hell Still Ain't Frozen Over
TTITLE11=Planetary Nights - Hide Away
TTITLE12=Will Peppers - I Hope Heaven Has A Dirt Road
TTITLE13=Neil Austin Imber - It's Been A Few Years
TTITLE14=Reagan Hudson - The Boar Hog Twist
EXTD=
EXTT0=
EXTT1=
EXTT2=
EXTT3=
EXTT4=
EXTT5=
EXTT6=
EXTT7=
EXTT8=
EXTT9=
EXTT10=
EXTT11=
EXTT12=
EXTT13=
EXTT14=
PLAYORDER=
